<mxfile host="65bd71144e">
    <diagram name="Page-1" id="9f46799a-70d6-7492-0946-bef42562c5a5">
        <mxGraphModel dx="984" dy="319" grid="1" gridSize="10" guides="1" tooltips="1" connect="1" arrows="1" fold="1" page="1" pageScale="1" pageWidth="1100" pageHeight="850" background="none" math="0" shadow="0">
            <root>
                <mxCell id="0"/>
                <mxCell id="1" parent="0"/>
                <mxCell id="78961159f06e98e8-124" style="edgeStyle=orthogonalEdgeStyle;html=1;labelBackgroundColor=none;startFill=0;startSize=8;endArrow=diamondThin;endFill=0;endSize=16;fontFamily=Verdana;fontSize=12;strokeColor=#A8201A;fontColor=default;rounded=1;entryX=0.5;entryY=0;entryDx=0;entryDy=0;exitX=0.5;exitY=1;exitDx=0;exitDy=0;" parent="1" target="78961159f06e98e8-56" edge="1" source="78961159f06e98e8-17">
                    <mxGeometry relative="1" as="geometry">
                        <Array as="points">
                            <mxPoint x="170" y="452"/>
                        </Array>
                        <mxPoint x="160" y="340" as="sourcePoint"/>
                        <mxPoint x="290" y="470" as="targetPoint"/>
                    </mxGeometry>
                </mxCell>
                <mxCell id="9" value="" style="edgeStyle=none;html=1;fontColor=#00FFFF;exitX=1;exitY=0.5;exitDx=0;exitDy=0;entryX=-0.012;entryY=0.132;entryDx=0;entryDy=0;entryPerimeter=0;" edge="1" parent="1" source="14" target="KzqB3IoScdNlmJi1fuJ3-15">
                    <mxGeometry relative="1" as="geometry"/>
                </mxCell>
                <mxCell id="78961159f06e98e8-17" value="&lt;font color=&quot;#00ffff&quot;&gt;user&lt;/font&gt;" style="swimlane;html=1;fontStyle=1;align=center;verticalAlign=top;childLayout=stackLayout;horizontal=1;startSize=26;horizontalStack=0;resizeParent=1;resizeLast=0;collapsible=1;marginBottom=0;swimlaneFillColor=#999900;rounded=1;shadow=0;comic=0;labelBackgroundColor=none;strokeWidth=1;fillColor=none;fontFamily=Verdana;fontSize=12;strokeColor=#0F8B8D;fontColor=#143642;" parent="1" vertex="1">
                    <mxGeometry x="90" y="83" width="160" height="260" as="geometry"/>
                </mxCell>
                <mxCell id="78961159f06e98e8-21" value="+ name:" style="text;html=1;strokeColor=none;fillColor=none;align=left;verticalAlign=top;spacingLeft=4;spacingRight=4;whiteSpace=wrap;overflow=hidden;rotatable=0;points=[[0,0.5],[1,0.5]];portConstraint=eastwest;rounded=1;labelBackgroundColor=none;fontColor=#143642;" parent="78961159f06e98e8-17" vertex="1">
                    <mxGeometry y="26" width="160" height="26" as="geometry"/>
                </mxCell>
                <mxCell id="78961159f06e98e8-23" value="+ surname" style="text;html=1;strokeColor=none;fillColor=none;align=left;verticalAlign=top;spacingLeft=4;spacingRight=4;whiteSpace=wrap;overflow=hidden;rotatable=0;points=[[0,0.5],[1,0.5]];portConstraint=eastwest;rounded=1;labelBackgroundColor=none;fontColor=#143642;" parent="78961159f06e98e8-17" vertex="1">
                    <mxGeometry y="52" width="160" height="26" as="geometry"/>
                </mxCell>
                <mxCell id="78961159f06e98e8-25" value="+ mail:" style="text;html=1;strokeColor=none;fillColor=none;align=left;verticalAlign=top;spacingLeft=4;spacingRight=4;whiteSpace=wrap;overflow=hidden;rotatable=0;points=[[0,0.5],[1,0.5]];portConstraint=eastwest;rounded=1;labelBackgroundColor=none;fontColor=#143642;" parent="78961159f06e98e8-17" vertex="1">
                    <mxGeometry y="78" width="160" height="26" as="geometry"/>
                </mxCell>
                <mxCell id="78961159f06e98e8-26" value="+ age:" style="text;html=1;strokeColor=none;fillColor=none;align=left;verticalAlign=top;spacingLeft=4;spacingRight=4;whiteSpace=wrap;overflow=hidden;rotatable=0;points=[[0,0.5],[1,0.5]];portConstraint=eastwest;rounded=1;labelBackgroundColor=none;fontColor=#143642;" parent="78961159f06e98e8-17" vertex="1">
                    <mxGeometry y="104" width="160" height="26" as="geometry"/>
                </mxCell>
                <mxCell id="KzqB3IoScdNlmJi1fuJ3-14" value="+ genre:" style="text;html=1;strokeColor=none;fillColor=none;align=left;verticalAlign=top;spacingLeft=4;spacingRight=4;whiteSpace=wrap;overflow=hidden;rotatable=0;points=[[0,0.5],[1,0.5]];portConstraint=eastwest;rounded=1;labelBackgroundColor=none;fontColor=#143642;" parent="78961159f06e98e8-17" vertex="1">
                    <mxGeometry y="130" width="160" height="26" as="geometry"/>
                </mxCell>
                <mxCell id="78961159f06e98e8-24" value="+ tel:" style="text;html=1;strokeColor=none;fillColor=none;align=left;verticalAlign=top;spacingLeft=4;spacingRight=4;whiteSpace=wrap;overflow=hidden;rotatable=0;points=[[0,0.5],[1,0.5]];portConstraint=eastwest;rounded=1;labelBackgroundColor=none;fontColor=#143642;" parent="78961159f06e98e8-17" vertex="1">
                    <mxGeometry y="156" width="160" height="26" as="geometry"/>
                </mxCell>
                <mxCell id="KzqB3IoScdNlmJi1fuJ3-12" value="+ adress" style="text;html=1;strokeColor=none;fillColor=none;align=left;verticalAlign=top;spacingLeft=4;spacingRight=4;whiteSpace=wrap;overflow=hidden;rotatable=0;points=[[0,0.5],[1,0.5]];portConstraint=eastwest;rounded=1;labelBackgroundColor=none;fontColor=#143642;" parent="78961159f06e98e8-17" vertex="1">
                    <mxGeometry y="182" width="160" height="26" as="geometry"/>
                </mxCell>
                <mxCell id="KzqB3IoScdNlmJi1fuJ3-13" value="+ pass:" style="text;html=1;strokeColor=none;fillColor=none;align=left;verticalAlign=top;spacingLeft=4;spacingRight=4;whiteSpace=wrap;overflow=hidden;rotatable=0;points=[[0,0.5],[1,0.5]];portConstraint=eastwest;rounded=1;labelBackgroundColor=none;fontColor=#143642;" parent="78961159f06e98e8-17" vertex="1">
                    <mxGeometry y="208" width="160" height="26" as="geometry"/>
                </mxCell>
                <mxCell id="14" value="+ social-care" style="text;html=1;strokeColor=none;fillColor=none;align=left;verticalAlign=top;spacingLeft=4;spacingRight=4;whiteSpace=wrap;overflow=hidden;rotatable=0;points=[[0,0.5],[1,0.5]];portConstraint=eastwest;rounded=1;labelBackgroundColor=none;fontColor=#143642;" vertex="1" parent="78961159f06e98e8-17">
                    <mxGeometry y="234" width="160" height="26" as="geometry"/>
                </mxCell>
                <mxCell id="78961159f06e98e8-30" value="&lt;font color=&quot;#00ffff&quot;&gt;turnos&lt;/font&gt;" style="swimlane;html=1;fontStyle=1;align=center;verticalAlign=top;childLayout=stackLayout;horizontal=1;startSize=26;horizontalStack=0;resizeParent=1;resizeLast=0;collapsible=1;marginBottom=0;swimlaneFillColor=#00994D;rounded=1;shadow=0;comic=0;labelBackgroundColor=none;strokeWidth=1;fillColor=none;fontFamily=Verdana;fontSize=12;strokeColor=#0F8B8D;fontColor=#143642;" parent="1" vertex="1">
                    <mxGeometry x="420" y="350" width="160" height="137" as="geometry"/>
                </mxCell>
                <mxCell id="78961159f06e98e8-31" value="+ especialidad" style="text;html=1;strokeColor=none;fillColor=none;align=left;verticalAlign=top;spacingLeft=4;spacingRight=4;whiteSpace=wrap;overflow=hidden;rotatable=0;points=[[0,0.5],[1,0.5]];portConstraint=eastwest;rounded=1;labelBackgroundColor=none;fontColor=#143642;" parent="78961159f06e98e8-30" vertex="1">
                    <mxGeometry y="26" width="160" height="26" as="geometry"/>
                </mxCell>
                <mxCell id="78961159f06e98e8-32" value="+ doctor:" style="text;html=1;strokeColor=none;fillColor=none;align=left;verticalAlign=top;spacingLeft=4;spacingRight=4;whiteSpace=wrap;overflow=hidden;rotatable=0;points=[[0,0.5],[1,0.5]];portConstraint=eastwest;rounded=1;labelBackgroundColor=none;fontColor=#143642;" parent="78961159f06e98e8-30" vertex="1">
                    <mxGeometry y="52" width="160" height="26" as="geometry"/>
                </mxCell>
                <mxCell id="78961159f06e98e8-33" value="+ date:" style="text;html=1;strokeColor=none;fillColor=none;align=left;verticalAlign=top;spacingLeft=4;spacingRight=4;whiteSpace=wrap;overflow=hidden;rotatable=0;points=[[0,0.5],[1,0.5]];portConstraint=eastwest;rounded=1;labelBackgroundColor=none;fontColor=#143642;" parent="78961159f06e98e8-30" vertex="1">
                    <mxGeometry y="78" width="160" height="26" as="geometry"/>
                </mxCell>
                <mxCell id="78961159f06e98e8-34" value="+ time:" style="text;html=1;strokeColor=none;fillColor=none;align=left;verticalAlign=top;spacingLeft=4;spacingRight=4;whiteSpace=wrap;overflow=hidden;rotatable=0;points=[[0,0.5],[1,0.5]];portConstraint=eastwest;rounded=1;labelBackgroundColor=none;fontColor=#143642;" parent="78961159f06e98e8-30" vertex="1">
                    <mxGeometry y="104" width="160" height="26" as="geometry"/>
                </mxCell>
                <mxCell id="78961159f06e98e8-56" value="&lt;font color=&quot;#00ffff&quot;&gt;credentials&lt;/font&gt;" style="swimlane;html=1;fontStyle=1;align=center;verticalAlign=top;childLayout=stackLayout;horizontal=1;startSize=26;horizontalStack=0;resizeParent=1;resizeLast=0;collapsible=1;marginBottom=0;swimlaneFillColor=#CC6600;rounded=1;shadow=0;comic=0;labelBackgroundColor=none;strokeWidth=1;fillColor=none;fontFamily=Verdana;fontSize=12;strokeColor=#0F8B8D;fontColor=#143642;" parent="1" vertex="1">
                    <mxGeometry x="110" y="452" width="120" height="78" as="geometry"/>
                </mxCell>
                <mxCell id="78961159f06e98e8-57" value="+ mail:" style="text;html=1;strokeColor=none;fillColor=none;align=left;verticalAlign=top;spacingLeft=4;spacingRight=4;whiteSpace=wrap;overflow=hidden;rotatable=0;points=[[0,0.5],[1,0.5]];portConstraint=eastwest;rounded=1;labelBackgroundColor=none;fontColor=#143642;" parent="78961159f06e98e8-56" vertex="1">
                    <mxGeometry y="26" width="120" height="26" as="geometry"/>
                </mxCell>
                <mxCell id="78961159f06e98e8-58" value="+ pass:" style="text;html=1;strokeColor=none;fillColor=none;align=left;verticalAlign=top;spacingLeft=4;spacingRight=4;whiteSpace=wrap;overflow=hidden;rotatable=0;points=[[0,0.5],[1,0.5]];portConstraint=eastwest;rounded=1;labelBackgroundColor=none;fontColor=#143642;" parent="78961159f06e98e8-56" vertex="1">
                    <mxGeometry y="52" width="120" height="26" as="geometry"/>
                </mxCell>
                <mxCell id="KzqB3IoScdNlmJi1fuJ3-15" value="&lt;font color=&quot;#00ffff&quot;&gt;options&lt;/font&gt;" style="swimlane;html=1;fontStyle=1;align=center;verticalAlign=top;childLayout=stackLayout;horizontal=1;startSize=26;horizontalStack=0;resizeParent=1;resizeLast=0;collapsible=1;marginBottom=0;swimlaneFillColor=#009900;rounded=1;shadow=0;comic=0;labelBackgroundColor=none;strokeWidth=1;fillColor=none;fontFamily=Verdana;fontSize=12;strokeColor=#0F8B8D;fontColor=#143642;" parent="1" vertex="1">
                    <mxGeometry x="420" y="142.5" width="160" height="78" as="geometry"/>
                </mxCell>
                <mxCell id="KzqB3IoScdNlmJi1fuJ3-16" value="+ yes" style="text;html=1;strokeColor=none;fillColor=none;align=left;verticalAlign=top;spacingLeft=4;spacingRight=4;whiteSpace=wrap;overflow=hidden;rotatable=0;points=[[0,0.5],[1,0.5]];portConstraint=eastwest;rounded=1;labelBackgroundColor=none;fontColor=#143642;" parent="KzqB3IoScdNlmJi1fuJ3-15" vertex="1">
                    <mxGeometry y="26" width="160" height="26" as="geometry"/>
                </mxCell>
                <mxCell id="KzqB3IoScdNlmJi1fuJ3-17" value="+ no" style="text;html=1;strokeColor=none;fillColor=none;align=left;verticalAlign=top;spacingLeft=4;spacingRight=4;whiteSpace=wrap;overflow=hidden;rotatable=0;points=[[0,0.5],[1,0.5]];portConstraint=eastwest;rounded=1;labelBackgroundColor=none;fontColor=#143642;" parent="KzqB3IoScdNlmJi1fuJ3-15" vertex="1">
                    <mxGeometry y="52" width="160" height="26" as="geometry"/>
                </mxCell>
                <mxCell id="12" style="edgeStyle=orthogonalEdgeStyle;html=1;labelBackgroundColor=none;startFill=0;startSize=8;endArrow=diamondThin;endFill=0;endSize=16;fontFamily=Verdana;fontSize=12;strokeColor=#A8201A;fontColor=default;rounded=1;entryX=0.5;entryY=0;entryDx=0;entryDy=0;exitX=0.5;exitY=1;exitDx=0;exitDy=0;" edge="1" parent="1">
                    <mxGeometry relative="1" as="geometry">
                        <Array as="points">
                            <mxPoint x="499.5" y="352.5"/>
                        </Array>
                        <mxPoint x="499.5" y="220.5" as="sourcePoint"/>
                        <mxPoint x="499.5" y="352.5" as="targetPoint"/>
                    </mxGeometry>
                </mxCell>
                <mxCell id="13" style="edgeStyle=orthogonalEdgeStyle;html=1;labelBackgroundColor=none;startFill=0;startSize=8;endArrow=diamondThin;endFill=0;endSize=16;fontFamily=Verdana;fontSize=12;strokeColor=#A8201A;fontColor=default;rounded=1;entryX=0.012;entryY=0.11;entryDx=0;entryDy=0;entryPerimeter=0;exitX=1;exitY=0.25;exitDx=0;exitDy=0;shadow=0;" edge="1" parent="1" source="78961159f06e98e8-56" target="78961159f06e98e8-30">
                    <mxGeometry relative="1" as="geometry">
                        <Array as="points">
                            <mxPoint x="230" y="470"/>
                            <mxPoint x="380" y="470"/>
                            <mxPoint x="380" y="365"/>
                        </Array>
                        <mxPoint x="270" y="510" as="sourcePoint"/>
                        <mxPoint x="380" y="550" as="targetPoint"/>
                    </mxGeometry>
                </mxCell>
            </root>
        </mxGraphModel>
    </diagram>
</mxfile>